<svg version="1.1" id="Layer_1" xmlns="http://www.w3.org/2000/svg" xmlns:xlink="http://www.w3.org/1999/xlink" x="0px" y="0px"
	 width="100%" viewBox="0 0 246 205" enable-background="new 0 0 246 205" xml:space="preserve">
<path fill="#FEFEFF" opacity="1.000000" stroke="none" 
	d="
M170.000000,206.000000 
	C113.333336,206.000000 57.166672,206.000000 1.000008,206.000000 
	C1.000005,137.666672 1.000005,69.333351 1.000003,1.000017 
	C82.999992,1.000011 164.999985,1.000011 246.999969,1.000006 
	C246.999985,69.333321 246.999985,137.666641 247.000000,205.999969 
	C221.500000,206.000000 196.000000,206.000000 170.000000,206.000000 
M105.401100,62.363041 
	C106.893265,61.970436 108.486603,61.764866 109.805244,61.051498 
	C110.128098,60.876839 109.919380,58.568043 109.298363,58.085350 
	C108.481972,57.450825 106.467628,57.105686 105.954926,57.619827 
	C105.144974,58.432068 105.154861,60.061855 104.009399,61.108551 
	C102.218025,61.151867 100.400162,61.053619 98.661568,61.378979 
	C98.374496,61.432701 98.011139,64.019753 98.411415,64.269722 
	C99.766914,65.116226 101.449646,65.438751 103.209503,66.733025 
	C99.662628,69.760101 93.929634,68.676437 91.494392,74.642609 
	C89.761528,78.887985 87.339554,82.866173 88.480415,87.271721 
	C91.136002,97.526543 93.943687,107.803909 97.682640,117.696884 
	C100.737389,125.779556 112.682716,126.268089 117.643829,119.056282 
	C122.476357,112.031387 121.355888,97.333542 115.061073,91.577187 
	C113.224388,89.897621 111.773392,88.315781 111.134598,85.873001 
	C111.134598,85.873001 111.353394,85.668541 112.112114,85.744438 
	C113.526863,85.527527 115.199867,85.719109 116.308586,85.018135 
	C119.824005,82.795570 121.102196,75.462524 119.052307,70.808838 
	C117.147148,66.483719 112.760284,64.292366 107.995186,65.231354 
	C106.314919,65.562462 104.610611,65.771515 103.093391,65.327133 
	C103.735001,64.115799 104.376602,62.904472 105.401100,62.363041 
M140.296875,41.139629 
	C138.702682,40.522331 137.108490,39.905033 135.514313,39.287735 
	C135.446548,40.649525 135.378784,42.011311 135.311020,43.373100 
	C136.880722,43.042431 138.450439,42.711765 140.676666,43.469509 
	C140.448822,44.668198 140.220993,45.866886 139.229202,47.305687 
	C137.587280,47.065262 135.943069,46.606503 134.303833,46.623596 
	C128.371933,46.685452 124.738289,50.978954 124.808311,57.644238 
	C124.881065,64.569809 127.397110,67.347122 133.960831,67.291306 
	C132.487442,69.195808 131.196716,70.939903 129.827957,72.620430 
	C123.765656,80.063530 122.342812,88.402885 125.425255,97.381294 
	C127.342804,102.966637 131.658585,105.600731 137.793762,105.630119 
	C143.069260,105.655396 146.195816,102.554413 147.723312,98.001503 
	C150.620209,89.366905 153.503876,80.696854 155.711029,71.870964 
	C157.736389,63.771992 155.853958,56.726826 147.859558,52.305466 
	C145.750534,51.139050 143.933121,49.445354 142.610336,47.591419 
	C143.944672,46.376453 145.279022,45.161484 146.613358,43.946518 
	C145.046082,43.323490 143.491882,42.663803 141.904510,42.097061 
	C141.339203,41.895233 140.693405,41.918900 140.296875,41.139629 
M144.834167,126.030327 
	C144.507156,126.950241 144.180145,127.870148 143.824310,128.871155 
	C142.782852,127.609001 141.986877,126.310478 140.876877,125.391098 
	C139.719727,124.432663 138.259796,123.839790 137.706665,123.526169 
	C138.620758,121.169434 140.188171,119.122276 139.744003,117.705963 
	C139.310349,116.323166 136.944305,115.068802 135.213531,114.659889 
	C130.022430,113.433456 124.606316,116.677238 123.892052,121.045891 
	C123.077774,126.026260 125.697304,128.833221 132.180817,129.986893 
	C133.093491,130.149292 133.974655,130.488770 134.870392,130.746262 
	C133.562836,131.551590 132.379227,131.029526 131.449768,131.320175 
	C129.530167,131.920471 127.745995,132.953873 125.906113,133.809128 
	C127.199989,135.408615 128.188766,137.845703 129.845459,138.449158 
	C134.645721,140.197739 138.905869,138.357513 141.806870,135.505386 
	C143.998032,136.559204 146.034805,138.387543 147.494629,138.006348 
	C149.007812,137.611221 150.340637,135.228851 151.068130,133.437714 
	C152.056961,131.003143 152.202454,128.234940 153.097504,125.749504 
	C153.530411,124.547432 154.847870,123.663910 155.764832,122.636162 
	C156.637650,129.644592 158.162216,135.107758 164.262466,137.958740 
	C170.409500,140.831589 175.307892,137.386108 180.405823,133.633865 
	C180.226959,137.146561 179.709854,140.008469 180.096863,142.742386 
	C180.293823,144.133743 181.999695,146.153488 183.237228,146.322296 
	C184.512833,146.496292 186.580780,145.077682 187.332947,143.789871 
	C188.243195,142.231384 188.136353,140.078842 188.472519,138.167007 
	C197.630478,140.494720 201.893677,137.533417 204.356262,127.604752 
	C207.662720,128.696716 210.975693,129.790833 214.288666,130.884949 
	C212.915298,131.539673 211.616089,130.935089 210.579239,131.235626 
	C208.746658,131.766800 207.073776,132.849030 205.334061,133.700607 
	C206.453857,135.274429 207.235092,137.594376 208.755890,138.284424 
	C213.632645,140.497238 220.109146,138.102432 222.170746,133.848206 
	C224.163040,129.737015 222.795166,126.837082 217.702652,123.555008 
	C218.304840,121.307915 219.857590,118.071136 219.190720,117.519974 
	C217.235825,115.904282 214.214645,114.269936 211.949387,114.651405 
	C208.711014,115.196777 205.772568,117.523117 202.385529,119.252541 
	C200.005325,115.273979 195.838623,113.752327 190.524002,115.116257 
	C189.849960,115.289238 188.969559,115.065636 188.296982,114.770279 
	C184.082916,112.919724 182.419495,114.978554 181.942535,118.851135 
	C181.577698,121.813339 181.287399,124.784721 180.963959,127.752022 
	C180.391342,127.892883 179.818726,128.033737 179.246109,128.174606 
	C180.057007,122.511520 178.201279,118.340263 173.460663,115.926491 
	C168.199432,113.247650 163.512939,114.529167 158.306427,119.326538 
	C157.371109,116.452461 156.768921,114.221558 155.904419,112.097412 
	C155.433563,110.940483 154.751083,109.417854 153.764206,108.996414 
	C147.558670,106.346359 148.609329,115.498695 143.784256,115.304367 
	C143.854218,116.944290 143.827438,118.595718 144.020706,120.220978 
	C144.223221,121.924034 144.636948,123.601974 144.834167,126.030327 
M110.056290,156.038757 
	C111.403084,157.209366 112.847282,159.399246 114.071030,159.282288 
	C115.475029,159.148132 117.543289,157.137146 117.834496,155.649994 
	C119.462692,147.335098 120.850700,138.955444 121.788307,130.538605 
	C121.966896,128.935333 119.757561,127.066048 118.649963,125.319489 
	C117.125183,126.746140 115.056091,127.912888 114.218262,129.667542 
	C113.247833,131.699890 113.359924,134.249115 112.976753,136.738403 
	C108.663429,134.131287 108.664879,124.869690 101.344292,129.752258 
	C97.548210,128.230057 94.129021,126.858986 90.629204,125.455589 
	C90.709984,124.870857 90.810448,124.221962 90.887794,123.570320 
	C91.243568,120.572670 92.990181,116.771912 88.154655,116.014404 
	C83.859558,115.341568 83.755699,119.225693 83.071869,122.010445 
	C81.543892,128.232803 80.181168,134.495712 78.416954,142.201752 
	C77.464165,138.768204 76.903511,136.742691 76.339943,134.718018 
	C75.587181,132.013687 75.328751,129.022812 73.967918,126.669777 
	C71.612556,122.597061 68.788277,127.169662 66.257385,126.798843 
	C60.165367,125.906227 56.674435,128.947357 54.098957,134.837204 
	C52.020447,128.469589 47.784504,126.190186 41.938076,126.270271 
	C42.210903,124.825699 42.369381,123.866653 42.575455,122.917931 
	C43.193058,120.074562 43.994114,116.880363 40.062786,116.051857 
	C36.271439,115.252846 35.493896,118.228844 34.844654,121.205269 
	C33.428944,127.695541 31.816717,134.142715 30.314451,140.614410 
	C28.896912,146.721100 29.324812,147.263046 35.639347,148.293213 
	C36.555431,148.442688 37.355858,149.232178 38.238453,149.667404 
	C42.649246,151.842422 47.148087,151.070938 50.423592,147.319305 
	C51.874718,145.657242 52.911442,143.633347 54.231972,141.628418 
	C58.639057,150.949966 62.115398,151.880035 71.535088,148.851044 
	C76.015518,147.410324 81.302078,146.833298 86.054047,149.271927 
	C92.626419,152.644730 99.534470,149.698242 101.794296,142.472260 
	C102.266121,140.963562 102.528809,139.389496 103.042931,137.178864 
	C107.091095,143.089737 112.898422,147.467987 110.056290,156.038757 
M129.754257,35.955173 
	C128.126740,36.762962 125.545105,37.204548 125.065887,38.453075 
	C123.995064,41.242996 125.454521,43.882233 128.539932,44.317593 
	C129.965836,44.518791 132.201477,43.391205 133.083969,42.159573 
	C135.234940,39.157623 133.088852,37.396027 129.754257,35.955173 
M110.883476,58.589886 
	C111.223900,61.651508 112.821541,64.103958 115.919235,62.784382 
	C117.747192,62.005688 118.910301,59.184208 119.812248,57.045204 
	C120.044151,56.495224 117.749580,54.019329 117.311653,54.192123 
	C115.068359,55.077263 113.052551,56.538967 110.883476,58.589886 
z"/>
<path fill="#E60880" opacity="1.000000" stroke="none" 
	d="
M144.896271,125.660614 
	C144.636948,123.601974 144.223221,121.924034 144.020706,120.220978 
	C143.827438,118.595718 143.854218,116.944290 143.784256,115.304367 
	C148.609329,115.498695 147.558670,106.346359 153.764206,108.996414 
	C154.751083,109.417854 155.433563,110.940483 155.904419,112.097412 
	C156.768921,114.221558 157.371109,116.452461 158.306427,119.326538 
	C163.512939,114.529167 168.199432,113.247650 173.460663,115.926491 
	C178.201279,118.340263 180.057007,122.511520 179.246109,128.174606 
	C179.818726,128.033737 180.391342,127.892883 180.963959,127.752022 
	C181.287399,124.784721 181.577698,121.813339 181.942535,118.851135 
	C182.419495,114.978554 184.082916,112.919724 188.296982,114.770279 
	C188.969559,115.065636 189.849960,115.289238 190.524002,115.116257 
	C195.838623,113.752327 200.005325,115.273979 202.385529,119.252541 
	C205.772568,117.523117 208.711014,115.196777 211.949387,114.651405 
	C214.214645,114.269936 217.235825,115.904282 219.190720,117.519974 
	C219.857590,118.071136 218.304840,121.307915 217.702652,123.555008 
	C222.795166,126.837082 224.163040,129.737015 222.170746,133.848206 
	C220.109146,138.102432 213.632645,140.497238 208.755890,138.284424 
	C207.235092,137.594376 206.453857,135.274429 205.334061,133.700607 
	C207.073776,132.849030 208.746658,131.766800 210.579239,131.235626 
	C211.616089,130.935089 212.915298,131.539673 214.288666,130.884949 
	C210.975693,129.790833 207.662720,128.696716 204.356262,127.604752 
	C201.893677,137.533417 197.630478,140.494720 188.472519,138.167007 
	C188.136353,140.078842 188.243195,142.231384 187.332947,143.789871 
	C186.580780,145.077682 184.512833,146.496292 183.237228,146.322296 
	C181.999695,146.153488 180.293823,144.133743 180.096863,142.742386 
	C179.709854,140.008469 180.226959,137.146561 180.405823,133.633865 
	C175.307892,137.386108 170.409500,140.831589 164.262466,137.958740 
	C158.162216,135.107758 156.637650,129.644592 155.764832,122.636162 
	C154.847870,123.663910 153.530411,124.547432 153.097504,125.749504 
	C152.202454,128.234940 152.056961,131.003143 151.068130,133.437714 
	C150.340637,135.228851 149.007812,137.611221 147.494629,138.006348 
	C146.034805,138.387543 143.998032,136.559204 141.806870,135.505386 
	C138.905869,138.357513 134.645721,140.197739 129.845459,138.449158 
	C128.188766,137.845703 127.199989,135.408615 125.906113,133.809128 
	C127.745995,132.953873 129.530167,131.920471 131.449768,131.320175 
	C132.379227,131.029526 133.562836,131.551590 134.870392,130.746262 
	C133.974655,130.488770 133.093491,130.149292 132.180817,129.986893 
	C125.697304,128.833221 123.077774,126.026260 123.892052,121.045891 
	C124.606316,116.677238 130.022430,113.433456 135.213531,114.659889 
	C136.944305,115.068802 139.310349,116.323166 139.744003,117.705963 
	C140.188171,119.122276 138.620758,121.169434 137.706665,123.526169 
	C138.259796,123.839790 139.719727,124.432663 140.876877,125.391098 
	C141.986877,126.310478 142.782852,127.609001 143.824310,128.871155 
	C144.180145,127.870148 144.507156,126.950241 144.896271,125.660614 
M196.029282,128.038574 
	C195.978058,122.933670 193.971268,120.477394 191.407120,122.441772 
	C190.096863,123.445549 189.299454,125.804047 189.269730,127.567093 
	C189.247787,128.868332 190.792526,131.221298 191.730270,131.267746 
	C193.062790,131.333740 194.478882,129.712387 196.029282,128.038574 
z"/>
<path fill="#07A0E3" opacity="1.000000" stroke="none" 
	d="
M110.041946,155.638748 
	C112.898422,147.467987 107.091095,143.089737 103.042931,137.178864 
	C102.528809,139.389496 102.266121,140.963562 101.794296,142.472260 
	C99.534470,149.698242 92.626419,152.644730 86.054047,149.271927 
	C81.302078,146.833298 76.015518,147.410324 71.535088,148.851044 
	C62.115398,151.880035 58.639057,150.949966 54.231972,141.628418 
	C52.911442,143.633347 51.874718,145.657242 50.423592,147.319305 
	C47.148087,151.070938 42.649246,151.842422 38.238453,149.667404 
	C37.355858,149.232178 36.555431,148.442688 35.639347,148.293213 
	C29.324812,147.263046 28.896912,146.721100 30.314451,140.614410 
	C31.816717,134.142715 33.428944,127.695541 34.844654,121.205269 
	C35.493896,118.228844 36.271439,115.252846 40.062786,116.051857 
	C43.994114,116.880363 43.193058,120.074562 42.575455,122.917931 
	C42.369381,123.866653 42.210903,124.825699 41.938076,126.270271 
	C47.784504,126.190186 52.020447,128.469589 54.098957,134.837204 
	C56.674435,128.947357 60.165367,125.906227 66.257385,126.798843 
	C68.788277,127.169662 71.612556,122.597061 73.967918,126.669777 
	C75.328751,129.022812 75.587181,132.013687 76.339943,134.718018 
	C76.903511,136.742691 77.464165,138.768204 78.416954,142.201752 
	C80.181168,134.495712 81.543892,128.232803 83.071869,122.010445 
	C83.755699,119.225693 83.859558,115.341568 88.154655,116.014404 
	C92.990181,116.771912 91.243568,120.572670 90.887794,123.570320 
	C90.810448,124.221962 90.709984,124.870857 90.629204,125.455589 
	C94.129021,126.858986 97.548210,128.230057 101.344292,129.752258 
	C108.664879,124.869690 108.663429,134.131287 112.976753,136.738403 
	C113.359924,134.249115 113.247833,131.699890 114.218262,129.667542 
	C115.056091,127.912888 117.125183,126.746140 118.649963,125.319489 
	C119.757561,127.066048 121.966896,128.935333 121.788307,130.538605 
	C120.850700,138.955444 119.462692,147.335098 117.834496,155.649994 
	C117.543289,157.137146 115.475029,159.148132 114.071030,159.282288 
	C112.847282,159.399246 111.403084,157.209366 110.041946,155.638748 
M87.659615,140.910309 
	C89.114738,141.569458 90.569862,142.228622 92.024986,142.887787 
	C92.910133,140.873428 94.227905,138.910599 94.476944,136.820450 
	C94.583138,135.929138 91.858185,133.699142 91.451561,133.926102 
	C89.914528,134.783981 88.688080,136.315277 87.587006,137.776596 
	C87.177643,138.319885 87.432770,139.363861 87.659615,140.910309 
M43.186615,142.982819 
	C44.102200,140.740311 45.894825,138.428101 45.723434,136.272003 
	C45.479324,133.201080 42.849594,132.976807 40.636368,134.790802 
	C37.745293,137.160370 38.727165,141.460175 43.186615,142.982819 
M62.061684,139.202896 
	C63.612564,140.526596 65.163445,141.850296 66.714325,143.173981 
	C67.493629,141.568893 69.118805,139.790588 68.834686,138.403290 
	C68.491913,136.729584 66.529350,135.387619 65.267914,133.902054 
	C64.180397,135.399536 63.092876,136.897018 62.061684,139.202896 
z"/>
<path fill="#04A0E3" opacity="1.000000" stroke="none" 
	d="
M110.917000,86.078712 
	C111.773392,88.315781 113.224388,89.897621 115.061073,91.577187 
	C121.355888,97.333542 122.476357,112.031387 117.643829,119.056282 
	C112.682716,126.268089 100.737389,125.779556 97.682640,117.696884 
	C93.943687,107.803909 91.136002,97.526543 88.480415,87.271721 
	C87.339554,82.866173 89.761528,78.887985 91.494392,74.642609 
	C93.929634,68.676437 99.662628,69.760101 103.077782,66.356186 
	C102.946060,65.979340 102.917274,66.036293 102.917274,66.036301 
	C104.610611,65.771515 106.314919,65.562462 107.995186,65.231354 
	C112.760284,64.292366 117.147148,66.483719 119.052307,70.808838 
	C121.102196,75.462524 119.824005,82.795570 116.308586,85.018135 
	C115.199867,85.719109 113.526863,85.527527 111.551880,85.496269 
	C110.725754,85.294075 110.459877,85.340042 110.193993,85.386017 
	C110.434998,85.616913 110.675995,85.847816 110.917000,86.078712 
z"/>
<path fill="#039FE3" opacity="1.000000" stroke="none" 
	d="
M141.981812,47.993782 
	C143.933121,49.445354 145.750534,51.139050 147.859558,52.305466 
	C155.853958,56.726826 157.736389,63.771992 155.711029,71.870964 
	C153.503876,80.696854 150.620209,89.366905 147.723312,98.001503 
	C146.195816,102.554413 143.069260,105.655396 137.793762,105.630119 
	C131.658585,105.600731 127.342804,102.966637 125.425255,97.381294 
	C122.342812,88.402885 123.765656,80.063530 129.827957,72.620430 
	C131.196716,70.939903 132.487442,69.195808 133.960831,67.291306 
	C127.397110,67.347122 124.881065,64.569809 124.808311,57.644238 
	C124.738289,50.978954 128.371933,46.685452 134.303833,46.623596 
	C135.943069,46.606503 137.587280,47.065262 139.619583,47.161400 
	C140.009964,47.017117 139.959457,47.028587 140.012543,47.368195 
	C140.722397,47.822277 141.379166,47.936752 142.037033,48.022873 
	C142.038147,47.994511 141.981812,47.993782 141.981812,47.993782 
z"/>
<path fill="#09A0E3" opacity="1.000000" stroke="none" 
	d="
M130.114166,36.033432 
	C133.088852,37.396027 135.234940,39.157623 133.083969,42.159573 
	C132.201477,43.391205 129.965836,44.518791 128.539932,44.317593 
	C125.454521,43.882233 123.995064,41.242996 125.065887,38.453075 
	C125.545105,37.204548 128.126740,36.762962 130.114166,36.033432 
z"/>
<path fill="#0CA2E4" opacity="1.000000" stroke="none" 
	d="
M110.920357,58.194515 
	C113.052551,56.538967 115.068359,55.077263 117.311653,54.192123 
	C117.749580,54.019329 120.044151,56.495224 119.812248,57.045204 
	C118.910301,59.184208 117.747192,62.005688 115.919235,62.784382 
	C112.821541,64.103958 111.223900,61.651508 110.920357,58.194515 
z"/>
<path fill="#17A3E4" opacity="1.000000" stroke="none" 
	d="
M140.084351,41.839630 
	C140.693405,41.918900 141.339203,41.895233 141.904510,42.097061 
	C143.491882,42.663803 145.046082,43.323490 146.613358,43.946518 
	C145.279022,45.161484 143.944672,46.376453 142.296082,47.792603 
	C141.981812,47.993782 142.038147,47.994511 141.988556,47.613605 
	C141.279144,47.164665 140.619293,47.096626 139.959457,47.028587 
	C139.959457,47.028587 140.009964,47.017117 140.001556,47.041344 
	C140.220993,45.866886 140.448822,44.668198 140.328247,42.838543 
	C139.979828,42.207577 140.084351,41.839630 140.084351,41.839630 
z"/>
<path fill="#1BA6E5" opacity="1.000000" stroke="none" 
	d="
M102.976700,65.970421 
	C101.449646,65.438751 99.766914,65.116226 98.411415,64.269722 
	C98.011139,64.019753 98.374496,61.432701 98.661568,61.378979 
	C100.400162,61.053619 102.218025,61.151867 104.458862,61.275200 
	C104.908318,61.441845 105.018204,61.693138 105.018204,61.693138 
	C104.376602,62.904472 103.735001,64.115799 103.005333,65.681717 
	C102.917274,66.036293 102.946060,65.979340 102.976700,65.970421 
z"/>
<path fill="#17A4E4" opacity="1.000000" stroke="none" 
	d="
M105.209656,62.028091 
	C105.018204,61.693138 104.908318,61.441845 104.863037,61.393742 
	C105.154861,60.061855 105.144974,58.432068 105.954926,57.619827 
	C106.467628,57.105686 108.481972,57.450825 109.298363,58.085350 
	C109.919380,58.568043 110.128098,60.876839 109.805244,61.051498 
	C108.486603,61.764866 106.893265,61.970436 105.209656,62.028091 
z"/>
<path fill="#0D9FE3" opacity="1.000000" stroke="none" 
	d="
M140.190613,41.489632 
	C140.084351,41.839630 139.979828,42.207577 139.999985,42.294338 
	C138.450439,42.711765 136.880722,43.042431 135.311035,43.373100 
	C135.378784,42.011311 135.446548,40.649525 135.514313,39.287735 
	C137.108490,39.905033 138.702682,40.522331 140.190613,41.489632 
z"/>
<path fill="#FCEFF6" opacity="1.000000" stroke="none" 
	d="
M195.944275,128.425293 
	C194.478882,129.712387 193.062790,131.333740 191.730270,131.267746 
	C190.792526,131.221298 189.247787,128.868332 189.269730,127.567093 
	C189.299454,125.804047 190.096863,123.445549 191.407120,122.441772 
	C193.971268,120.477394 195.978058,122.933670 195.944275,128.425293 
z"/>
<path fill="#ECF7FB" opacity="1.000000" stroke="none" 
	d="
M87.522247,140.544907 
	C87.432770,139.363861 87.177643,138.319885 87.587006,137.776596 
	C88.688080,136.315277 89.914528,134.783981 91.451561,133.926102 
	C91.858185,133.699142 94.583138,135.929138 94.476944,136.820450 
	C94.227905,138.910599 92.910133,140.873428 92.024986,142.887787 
	C90.569862,142.228622 89.114738,141.569458 87.522247,140.544907 
z"/>
<path fill="#F4FBFC" opacity="1.000000" stroke="none" 
	d="
M42.783588,143.069977 
	C38.727165,141.460175 37.745293,137.160370 40.636368,134.790802 
	C42.849594,132.976807 45.479324,133.201080 45.723434,136.272003 
	C45.894825,138.428101 44.102200,140.740311 42.783588,143.069977 
z"/>
<path fill="#F4FAFC" opacity="1.000000" stroke="none" 
	d="
M62.033524,138.798706 
	C63.092876,136.897018 64.180397,135.399536 65.267914,133.902054 
	C66.529350,135.387619 68.491913,136.729584 68.834686,138.403290 
	C69.118805,139.790588 67.493629,141.568893 66.714325,143.173981 
	C65.163445,141.850296 63.612564,140.526596 62.033524,138.798706 
z"/>
<path fill="#FEFEFF" opacity="1.000000" stroke="none" 
	d="
M111.025803,85.975861 
	C110.675995,85.847816 110.434998,85.616913 110.193993,85.386017 
	C110.459877,85.340042 110.725754,85.294075 111.172516,85.458321 
	C111.353394,85.668541 111.134598,85.873001 111.025803,85.975861 
z"/>
<path fill="#FEFEFF" opacity="1.000000" stroke="none" 
	d="
M140.012543,47.368195 
	C140.619293,47.096626 141.279144,47.164665 141.987457,47.641968 
	C141.379166,47.936752 140.722397,47.822277 140.012543,47.368195 
z"/>
</svg>